<?xml version="1.0" standalone="no"?><!DOCTYPE svg PUBLIC "-//W3C//DTD SVG 1.1//EN" "http://www.w3.org/Graphics/SVG/1.1/DTD/svg11.dtd"><svg t="1504335978615" class="icon" style="" viewBox="0 0 1024 1024" version="1.1" xmlns="http://www.w3.org/2000/svg" p-id="1277" xmlns:xlink="http://www.w3.org/1999/xlink" width="16" height="16"><defs><style type="text/css">html, * { user-select: text !important; }
</style></defs><path d="M146 550.2v295.5c0 61.9 163.9 112.2 366 112.2s366-50.2 366-112.2V550.2H146z" fill="#FFD495" p-id="1278"></path><path d="M512 962.9c-98.3 0-190.7-11.7-260.3-33.1-71.4-21.8-110.7-51.7-110.7-84V545.2h742v300.5c0 32.3-39.3 62.2-110.7 84.1-69.6 21.4-162 33.1-260.3 33.1zM151 555.2v290.5c0 27.2 37.8 54.3 103.7 74.5 68.7 21 160.1 32.6 257.4 32.6s188.7-11.6 257.4-32.6c65.9-20.2 103.7-47.3 103.7-74.5V555.2H151z" fill="" p-id="1279"></path><path d="M146 550.2v203.4c14.8-6.1 27.4-10.4 36.6-11 43.8-2.9 83.7 71.5 163.7 68.6 79.9-2.9 76.1-65.9 152.3-68.7 76.1-2.8 62.8 75.4 127.5 68.7s41.9-69.6 114.2-84.8C792 715.6 838.8 769 878 798.2v-248H146z" fill="#BF7360" p-id="1280"></path><path d="M618.4 816.7c-28.5 0-41.7-17.1-54.6-33.7-14.7-18.9-28.5-36.8-65.1-35.4-35.8 1.3-52.9 16.4-70.9 32.4-19.2 17.1-39.1 34.7-81.4 36.3-47.3 1.7-81.5-22.9-109-42.7-20.1-14.5-37.5-27-54.6-25.9-9.6 0.6-23.7 6-35 10.6l-6.9 2.8V545.2h742v263l-8-5.9c-8.2-6.1-16.6-13.1-25.5-20.6-32.6-27.4-69.6-58.4-108.3-50.3-34.4 7.2-45.9 25.8-57.1 43.8-11.4 18.4-23.2 37.4-57.7 41-2.6 0.3-5.3 0.5-7.9 0.5z m-116-79.2c38.7 0 54.9 20.9 69.3 39.4 13.5 17.4 25.1 32.4 53.8 29.4 29.6-3.1 39.1-18.5 50.2-36.3 11.7-18.9 24.9-40.2 63.5-48.4 43.4-9.1 82.4 23.5 116.8 52.4 5.9 4.9 11.5 9.7 17 14V555.2H151v191.1c14.1-5.5 23.7-8.1 31.2-8.6 20.6-1.4 39.4 12.2 61.1 27.8 27.6 19.9 58.9 42.4 102.8 40.8 38.7-1.4 56.4-17.1 75.1-33.7 18.6-16.5 37.8-33.5 77.2-34.9 1.3-0.2 2.7-0.2 4-0.2z" fill="" p-id="1281"></path><path d="M146 550.2a366 112.2 0 1 0 732 0 366 112.2 0 1 0-732 0Z" fill="#832E1F" p-id="1282"></path><path d="M512 667.4c-98.3 0-190.7-11.7-260.3-33.1-71.4-21.9-110.7-51.8-110.7-84.1s39.3-62.2 110.7-84.1c69.6-21.3 162-33.1 260.3-33.1s190.7 11.7 260.3 33.1C843.7 488 883 517.9 883 550.2s-39.3 62.2-110.7 84.1c-69.6 21.3-162 33.1-260.3 33.1z m0-224.3c-97.3 0-188.7 11.6-257.4 32.6C188.8 495.9 151 523 151 550.2c0 27.2 37.8 54.3 103.7 74.5 68.7 21 160.1 32.6 257.4 32.6s188.7-11.6 257.4-32.6c65.9-20.2 103.7-47.3 103.7-74.5 0-27.2-37.8-54.3-103.7-74.5-68.8-21.1-160.2-32.6-257.5-32.6z" fill="" p-id="1283"></path><path d="M261.3 336.8v202.4c0 42.4 112.2 76.8 250.7 76.8s250.7-34.4 250.7-76.8V336.8H261.3z" fill="#FFD495" p-id="1284"></path><path d="M512 621.1c-67.4 0-130.9-8.1-178.7-22.7-49.6-15.2-77-36.2-77-59.1V331.8h511.4v207.4c0 22.9-27.3 43.9-77 59.1-47.8 14.7-111.3 22.8-178.7 22.8zM266.3 341.8v197.4c0 17.9 25.5 35.9 69.9 49.5C383.1 603.1 445.5 611 512 611s128.9-7.9 175.8-22.3c44.4-13.6 69.9-31.7 69.9-49.5V341.8H266.3z" fill="" p-id="1285"></path><path d="M261.3 336.8v139.3c10.1-4.2 18.8-7.1 25-7.5 30-2 57.4 49 112.1 47 54.8-2 52.1-45.1 104.3-47 52.1-1.9 43 51.7 87.3 47 44.3-4.6 28.7-47.6 78.2-58.1 35.4-7.5 67.5 29.1 94.4 49.1V336.8H261.3z" fill="#BF7360" p-id="1286"></path><path d="M584.9 520.9c-20.4 0-30.1-12.5-38.7-23.7-9.8-12.6-19.1-24.5-43.3-23.7-24 0.9-35.4 11-47.6 21.8-13.4 11.9-27.2 24.1-56.7 25.2-33 1.2-56.6-15.8-75.6-29.5-13.6-9.8-25.3-18.2-36.3-17.5-6.3 0.4-15.9 4-23.5 7.2l-6.9 2.8V331.8h511.4v184.8l-8-5.9c-5.7-4.2-11.4-9-17.5-14.2-22.1-18.5-47.1-39.5-72.8-34.1-22.9 4.8-30.3 16.7-38.1 29.3-8 12.9-16.3 26.3-40.7 28.8-2 0.3-3.9 0.4-5.7 0.4z m-79.4-57.3c27.3 0 38.6 14.6 48.7 27.6 9.3 12 16.7 21.5 35.4 19.5 19.5-2 25.5-11.8 33.2-24.1 8.2-13.2 17.4-28.1 44.5-33.8 30.5-6.4 57.5 16.2 81.3 36.2 3.1 2.6 6.1 5.1 9.1 7.5V341.8H266.3v127c8.7-3.3 14.8-4.8 19.7-5.2 14.7-1 27.7 8.4 42.8 19.3 18.7 13.5 39.9 28.7 69.4 27.7 25.9-1 37.8-11.5 50.4-22.7 12.9-11.5 26.3-23.3 53.8-24.3h3.1z" fill="" p-id="1287"></path><path d="M261.3 336.8a250.7 76.8 0 1 0 501.4 0 250.7 76.8 0 1 0-501.4 0Z" fill="#832E1F" p-id="1288"></path><path d="M512 418.7c-67.4 0-130.9-8.1-178.7-22.7-49.6-15.2-77-36.2-77-59.1s27.3-43.9 77-59.1C381.1 263.1 444.6 255 512 255s130.9 8.1 178.7 22.7c49.6 15.2 77 36.2 77 59.1s-27.3 43.9-77 59.1c-47.8 14.7-111.3 22.8-178.7 22.8z m0-153.7c-66.5 0-128.9 7.9-175.8 22.3-44.4 13.6-69.9 31.7-69.9 49.5s25.5 35.9 69.9 49.5c46.9 14.4 109.3 22.3 175.8 22.3s128.9-7.9 175.8-22.3c44.4-13.6 69.9-31.7 69.9-49.5s-25.5-35.9-69.9-49.5C640.9 273 578.5 265 512 265z" fill="" p-id="1289"></path><path d="M547.2 147.2c0 19.4-15.7 35.1-35.1 35.1-19.4 0-37-15.8-35.1-35.1 3.5-35.5 49.9-53.4 35.9-79.9-0.3-0.6 0.2-1.2 0.9-1.1 18.5 3.1 33.4 62.1 33.4 81z" fill="#FF3B59" p-id="1290"></path><path d="M512.1 187.3c-11.6 0-23.1-5.1-30.9-13.6-6.9-7.6-10.2-17.2-9.2-27 1.8-17.9 13.2-31.3 23.2-43.1 12.3-14.5 18.9-23.2 13.2-34v-0.1c-1-1.9-0.8-4.2 0.5-6 1.3-1.8 3.4-2.7 5.6-2.4h0.1c10.2 1.8 19.5 14.6 27.6 38 5.8 16.8 10 37 10 48 0 22.2-18 40.2-40.1 40.2z m8.4-110.2c0 12-8.9 22.6-17.7 32.9-9.5 11.2-19.4 22.9-20.9 37.7-0.7 6.9 1.7 13.8 6.7 19.3 5.9 6.5 14.6 10.3 23.5 10.3 16.6 0 30.1-13.5 30.1-30.1 0-8.4-3.3-26.9-9.5-44.8-4.2-12.2-8.5-20.3-12.2-25.3z" fill="" p-id="1291"></path><path d="M521 324.4h-18c-16.3 0-29.5-13.2-29.5-29.5V196h77v98.9c0 16.2-13.2 29.5-29.5 29.5z" fill="#4AD1CD" p-id="1292"></path><path d="M521 329.4h-18c-19 0-34.5-15.5-34.5-34.5v-104h87v103.9c0 19.1-15.5 34.6-34.5 34.6z m-42.5-128.5v93.9c0 13.5 11 24.5 24.5 24.5h18c13.5 0 24.5-11 24.5-24.5v-93.9h-67z" fill="" p-id="1293"></path></svg>