<?xml version="1.0" standalone="no"?><!DOCTYPE svg PUBLIC "-//W3C//DTD SVG 1.1//EN" "http://www.w3.org/Graphics/SVG/1.1/DTD/svg11.dtd"><svg t="1504336002142" class="icon" style="" viewBox="0 0 1024 1024" version="1.1" xmlns="http://www.w3.org/2000/svg" p-id="2015" xmlns:xlink="http://www.w3.org/1999/xlink" width="16" height="16"><defs><style type="text/css">html, * { user-select: text !important; }
</style></defs><path d="M766.221653 666.66496a20.48 20.48 0 0 1-20.476586-20.33664c-1.737387-250.187093-241.752747-487.307947-244.176214-489.673387a20.483413 20.483413 0 0 1 28.593494-29.32736c2.60096 2.532693 64.395947 63.136427 127.228586 157.14304 58.453333 87.456427 128.33792 221.17376 129.314134 361.5744a20.486827 20.486827 0 0 1-20.33664 20.62336l-0.146774-0.003413z" fill="#1E8C03" p-id="2016"></path><path d="M270.37696 678.877867a20.486827 20.486827 0 0 1-20.19328-17.21344c-18.589013-114.920107 18.684587-244.032853 107.789653-373.38112 66.474667-96.494933 137.393493-158.665387 140.38016-161.266347a20.476587 20.476587 0 0 1 28.890454 2.003627 20.48 20.48 0 0 1-1.993387 28.88704c-2.7648 2.409813-275.643733 243.674453-234.632533 497.21344a20.48 20.48 0 0 1-20.241067 23.7568z" fill="#1E8C03" p-id="2017"></path><path d="M502.330027 158.477653c-259.525973 0-350.829227-70.23616-355.252907-73.772373a20.48 20.48 0 0 1 25.473707-32.07168c2.075307 1.573547 124.811947 91.736747 490.161493 56.756907a20.48 20.48 0 0 1 3.908267 40.772266c-61.026987 5.843627-115.63008 8.31488-164.29056 8.31488z" fill="#1E8C03" p-id="2018"></path><path d="M852.26496 600.630613c-24.070827 0-80.35328 14.257493-100.068693 14.844587-19.698347-1.102507-76.01152-14.844587-100.07552-14.844587-57.033387 0-107.055787 40.645973-103.273814 123.927894 3.785387 83.27168 54.084267 209.906347 131.601067 224.515413 26.968747 5.74464 110.424747 10.489173 147.565227 0 66.665813-15.28832 123.74016-141.247147 127.522133-224.515413 3.781973-83.28192-46.237013-123.927893-103.2704-123.927894z" fill="#CE1B60" p-id="2019"></path><path d="M762.395307 975.766187c-31.699627 0-67.781973-2.778453-85.98528-6.61504-90.13248-17.216853-143.878827-152.511147-148.026027-243.667627-2.048-45.090133 10.161493-82.83136 35.304107-109.141333 22.30272-23.343787 53.7088-36.194987 88.429226-36.194987 15.58528 0 39.95648 4.49536 63.525547 8.843947 14.40768 2.655573 29.2864 5.403307 36.80256 5.973333 7.72096-0.413013 23.589547-3.3792 38.956373-6.253227 22.521173-4.20864 45.810347-8.564053 60.859734-8.564053 34.720427 0 66.123093 12.854613 88.425813 36.194987 25.142613 26.313387 37.348693 64.054613 35.304107 109.144746-3.843413 84.57216-62.76096 224.525653-142.8992 243.428694-16.387413 4.543147-40.17152 6.85056-70.69696 6.85056zM652.117333 621.110613c-23.425707 0-44.311893 8.35584-58.815146 23.534934-17.227093 18.029227-25.52832 45.339307-23.995734 78.984533 3.433813 75.53024 49.913173 193.068373 114.93376 205.318827l0.474454 0.095573c13.11744 2.792107 44.803413 5.761707 77.684053 5.761707 26.299733 0 47.622827-1.931947 60.050773-5.444267 0.32768-0.088747 0.65536-0.177493 0.989867-0.252587 53.248-12.209493 108.032-126.112427 111.639893-205.482666 1.529173-33.641813-6.76864-60.955307-23.995733-78.984534-14.49984-15.17568-35.386027-23.534933-58.811733-23.534933-11.257173 0-33.611093 4.181333-53.333334 7.867733-19.101013 3.570347-35.597653 6.652587-46.127786 6.966614a16.7936 16.7936 0 0 1-1.757867-0.023894c-9.765547-0.546133-25.091413-3.372373-42.83392-6.64576-19.72224-3.6352-44.260693-8.16128-56.101547-8.16128z" fill="#B20055" p-id="2020"></path><path d="M623.9232 710.929067c-1.283413 22.213973 1.959253 44.858027 10.38336 67.106133" fill="#FF2C2C" p-id="2021"></path><path d="M634.309973 798.522027a20.486827 20.486827 0 0 1-19.155626-13.236907c-9.233067-24.39168-13.161813-49.80736-11.677014-75.537067 0.651947-11.29472 10.45504-19.909973 21.62688-19.268266a20.483413 20.483413 0 0 1 19.268267 21.62688c-1.153707 19.95776 1.90464 39.697067 9.089707 58.6752a20.48 20.48 0 0 1-11.902294 26.402133c-2.389333 0.907947-4.840107 1.338027-7.24992 1.338027z" fill="#FFFFFF" p-id="2022"></path><path d="M371.892907 600.630613c-24.070827 0-80.349867 14.257493-100.07552 14.844587-19.69152-1.102507-76.004693-14.844587-100.07552-14.844587-57.033387 0-107.055787 40.645973-103.2704 123.927894 3.785387 83.27168 54.084267 209.906347 131.597653 224.515413 26.968747 5.74464 110.424747 10.489173 147.572053 0 66.665813-15.28832 123.733333-141.247147 127.522134-224.515413 3.781973-83.28192-46.237013-123.927893-103.2704-123.927894z" fill="#CE1B60" p-id="2023"></path><path d="M282.023253 975.766187c-0.003413 0-0.003413 0 0 0-31.699627 0-67.785387-2.778453-85.988693-6.61504-90.13248-17.216853-143.878827-152.511147-148.022613-243.667627-2.051413-45.090133 10.15808-82.83136 35.300693-109.141333 22.30272-23.343787 53.7088-36.194987 88.429227-36.194987 15.592107 0 39.96672 4.49536 63.5392 8.84736 14.404267 2.655573 29.279573 5.399893 36.79232 5.96992 7.727787-0.413013 23.599787-3.3792 38.970026-6.253227 22.51776-4.20864 45.800107-8.564053 60.852907-8.564053 34.720427 0 66.123093 12.854613 88.425813 36.194987 25.142613 26.313387 37.348693 64.054613 35.300694 109.144746-3.843413 84.57216-62.764373 224.525653-142.895787 243.428694-16.401067 4.54656-40.185173 6.85056-70.703787 6.85056z m-110.2848-354.655574c-23.425707 0-44.315307 8.35584-58.815146 23.534934-17.227093 18.029227-25.524907 45.339307-23.995734 78.984533 3.433813 75.53024 49.916587 193.068373 114.93376 205.318827l0.47104 0.095573c13.120853 2.792107 44.803413 5.761707 77.687467 5.761707 26.299733 0 47.62624-1.931947 60.054187-5.444267 0.32768-0.088747 0.65536-0.177493 0.986453-0.252587 53.244587-12.209493 108.032-126.112427 111.643307-205.482666 1.529173-33.641813-6.76864-60.955307-23.995734-78.984534-14.49984-15.17568-35.38944-23.534933-58.811733-23.534933-11.25376 0-33.60768 4.181333-53.326507 7.867733-19.104427 3.570347-35.601067 6.652587-46.14144 6.966614a17.681067 17.681067 0 0 1-1.754453-0.023894c-9.765547-0.546133-25.084587-3.372373-42.82368-6.642346-19.72224-3.638613-44.264107-8.164693-56.111787-8.164694z" fill="#B20055" p-id="2024"></path><path d="M143.551147 710.929067c-1.286827 22.213973 1.962667 44.858027 10.38336 67.106133" fill="#FF2C2C" p-id="2025"></path><path d="M153.93792 798.522027a20.486827 20.486827 0 0 1-19.155627-13.236907c-9.239893-24.405333-13.16864-49.824427-11.677013-75.543893a20.48 20.48 0 0 1 40.891733 2.372266c-1.153707 19.93728 1.90464 39.676587 9.09312 58.668374a20.48 20.48 0 0 1-11.902293 26.402133c-2.389333 0.907947-4.840107 1.338027-7.24992 1.338027z" fill="#FFFFFF" p-id="2026"></path></svg>