<?xml version="1.0" standalone="no"?><!DOCTYPE svg PUBLIC "-//W3C//DTD SVG 1.1//EN" "http://www.w3.org/Graphics/SVG/1.1/DTD/svg11.dtd"><svg t="1504262702719" class="icon" style="" viewBox="0 0 1024 1024" version="1.1" xmlns="http://www.w3.org/2000/svg" p-id="3089" xmlns:xlink="http://www.w3.org/1999/xlink" width="16" height="16"><defs><style type="text/css">html, * { user-select: text !important; }
</style></defs><path d="M819.2 848.2c-7.2 0-14-2.8-19-7.9L512 551.2l-288 286.5c-5.1 5-11.8 7.8-18.9 7.8-7.2 0-14-2.8-19.1-7.9-5.1-5.1-7.8-11.8-7.8-19 0-7.2 2.8-13.9 7.9-19l288-286.4L188.4 226.6c-10.5-10.5-10.4-27.6 0.1-38 5.1-5 11.8-7.8 19-7.8 7.2 0 13.9 2.8 19 7.9l285.7 286.6 288.2-286.6c5.1-5.1 11.8-7.8 18.9-7.8 7.2 0 14 2.8 19.1 8 10.4 10.5 10.4 27.5-0.1 38L550.1 513.3l288.2 289.1c10.4 10.5 10.4 27.5-0.1 38C833.1 845.4 826.4 848.2 819.2 848.2z" p-id="3090"></path></svg>