<?xml version="1.0" standalone="no"?><!DOCTYPE svg PUBLIC "-//W3C//DTD SVG 1.1//EN" "http://www.w3.org/Graphics/SVG/1.1/DTD/svg11.dtd"><svg t="1505049246610" class="icon" style="" viewBox="0 0 1026 1024" version="1.1" xmlns="http://www.w3.org/2000/svg" p-id="2406" xmlns:xlink="http://www.w3.org/1999/xlink" width="100%" height="100%"><defs><style type="text/css">html, * { user-select: text !important; }
</style></defs><path d="M357.484089 1003.861333a34.360889 34.360889 0 0 1-34.304-34.360889V117.248L59.158756 381.155556a34.360889 34.360889 0 1 1-48.583112-48.583112l322.56-322.56a34.360889 34.360889 0 0 1 58.595556 24.291556v935.139556a34.247111 34.247111 0 0 1-34.304 34.360888z m310.044444 0a34.360889 34.360889 0 0 1-34.360889-34.360889L633.281422 34.360889a34.360889 34.360889 0 0 1 68.664889 0v852.195555l264.021333-263.964444a34.360889 34.360889 0 1 1 48.583112 48.526222l-322.56 322.616889a34.360889 34.360889 0 0 1-24.348445 10.126222z" p-id="2407"></path></svg>