<?xml version="1.0" standalone="no"?><!DOCTYPE svg PUBLIC "-//W3C//DTD SVG 1.1//EN" "http://www.w3.org/Graphics/SVG/1.1/DTD/svg11.dtd"><svg t="1505051248215" class="icon" style="" viewBox="0 0 1024 1024" version="1.1" xmlns="http://www.w3.org/2000/svg" p-id="7804" xmlns:xlink="http://www.w3.org/1999/xlink" width="64" height="64"><defs><style type="text/css">html, * { user-select: text !important; }
</style></defs><path d="M559.530547 528.048386c24.797066 3.359532 48.565481 4.907981 72.333896-1.291286 28.676396-7.490552 48.828116-24.802538 60.45516-51.667851 3.873858-9.039001 7.747715-11.369882 17.306514-8.524675 41.332092 11.884207 82.921346 23.254089 118.573969 48.828116 15.500902 11.101776 27.647744 25.574027 36.943908 44.691623-22.72882-5.427778-43.657501-10.850084-65.35767-13.689819-37.97256-4.907981-75.173631-1.548449-112.374702 6.713592-42.623378 9.301636-83.703778 5.170615-121.9335-18.083474-2.33088-1.034123-5.427778-1.55392-5.947575-6.976226z" fill="#91D2E6" p-id="7805"></path><path d="M539.635989 601.416405c9.039001 9.296164 9.039001 22.985983 16.277863 33.321742-6.719064 5.942104-14.723942 3.616695-22.219966 2.588043-57.609954-8.781838-110.049293-30.224844-154.740917-67.945713-35.389988-29.967682-64.586181-65.357669-82.926818-108.500844-4.650818-10.592922-14.981105-19.631923-9.815961-33.327214-0.77696-33.584376-4.650818-66.391793-22.477129-96.616636 13.689819 5.684941 26.60815 12.404005 37.201071 22.734291 3.873858 28.933558 8.781838 57.867117 20.92868 84.73243 39.783643 87.06331 105.398475 142.347855 199.695175 162.494104 6.199267 1.285814 12.135899 1.805612 18.078002 0.519797z" fill="#FACE19" p-id="7806"></path><path d="M170.475956 265.058316c26.60815 5.165144 52.701973 12.655696 78.018837 21.957332 28.156598 10.335759 56.575831 17.049351 86.543512 16.792188 19.117597-0.257163 35.652622 6.461901 50.376565 19.37476 26.093824 22.477129 46.502707 48.051156 56.313197 81.378369 5.942104 20.408883 14.466779 40.040806 18.340636 61.226649-5.942104 1.034123-6.719064-3.359532-8.781838-5.684941-8.524676-10.850084-17.049351-21.443006-25.574026-32.550254-19.117597-24.802538-41.851889-45.468584-69.231528-60.969486-4.131021-2.325409-9.558799-3.873858-3.616694-10.850084 3.359532-3.873858 1.034123-10.073124-2.845207-13.952454-4.388183-4.388183-10.330287-4.650818-13.946982-1.028651-6.976227 6.970755-12.404005 2.325409-18.346108-0.519797-50.89089-24.282741-101.524618-48.308318-152.415508-72.591059 0-4.650818 2.582572-3.616695 5.165144-2.582572z" fill="#2DA7E0" p-id="7807"></path><path d="M286.729987 464.490856c0-2.582572-0.257163-5.165144-0.257163-7.747715 8.01035-3.616695 9.301636 2.839735 11.627045 7.747715 15.758065 32.29309 36.166948 61.226649 61.740974 86.291821 46.240072 45.720275 101.787252 72.848222 165.591001 84.469796 10.850084 2.068246 22.219966 0 32.550254 4.90798 4.907981 8.524676 8.524676 17.826311 10.335759 27.379638 2.582572 8.530147-3.873858 9.039001-9.301636 9.56427a131.38834 131.38834 0 0 1-30.219373-0.525268c-45.211421-24.534432-92.742779-44.691624-138.725689-67.940242-48.565481-24.539904-86.543513-58.644077-99.976169-114.185785-1.034123-4.650818-1.811083-9.301636-1.548448-13.946982-2.079189-4.902509 1.02318-10.844613-1.816555-16.015228z" fill="#F9CA1C" p-id="7808"></path><path d="M539.635989 601.416405c-1.548449 7.227918-6.970755 4.902509-11.36441 4.13102-51.925013-9.558799-98.165086-30.996333-137.697037-66.648955-47.274195-42.628849-77.241877-95.068188-88.606287-157.848757-1.548449-9.039001-5.427778-18.083474-1.034123-27.642273 9.558799 8.781838 21.700169 14.981105 26.350986 28.156598 4.650818 41.337563 23.505781 76.727551 49.342442 108.500845 34.355865 42.366215 76.984714 72.853694 130.72081 86.029187 5.422306 1.285814 10.850084 2.582572 16.529554 2.319937a68.963421 68.963421 0 0 1 15.758065 23.002398z" fill="#FAD117" p-id="7809"></path><path d="M510.965065 488.259271c-7.23339-2.839735-13.432656-7.23339-18.854962-12.912859 2.839735-6.976227 9.815961-9.558799 15.500902-12.91833 79.567286-50.376564 159.134572-101.010292 238.701857-151.129694 4.907981-3.096898 9.558799-6.456429 15.238268-1.805611-2.582572 10.330287-7.747715 19.37476-12.907387 28.413761-37.978031 26.350987-77.761674 50.119402-116.773829 74.916468-36.161477 22.991455-72.071262 46.240072-108.500844 68.717201-3.879329 2.33088-7.496024 5.690412-12.404005 6.719064z" fill="#61A8D3" p-id="7810"></path><path d="M761.545659 309.235614c-15.495431 1.034123-25.831189 12.398533-37.967088 19.889085-48.31379 29.453356-95.85062 60.192526-143.376507 90.417371a16562.656626 16562.656626 0 0 1-87.834799 55.541708c-5.684941-1.811083-8.267513-6.456429-11.107247-10.850085 2.582572-5.165144 6.976227-8.781838 11.884208-11.627044 87.06331-53.473462 172.572699-109.534967 259.367903-163.528227 5.684941-3.616695 11.112719-10.850084 19.37476-5.684941-3.107841 8.792781-5.427778 17.831783-10.34123 25.842133z" fill="#5DA4D1" p-id="7811"></path><path d="M490.556182 397.327575a86.379366 86.379366 0 0 1 12.404005-24.282741c30.73917-14.723942 58.12428-34.618499 86.800676-52.696501a92570.704422 92570.704422 0 0 1 206.923092-130.720811c4.650818-3.096898 9.558799-8.004878 16.277863-4.13102-0.77696 6.199267-2.068246 12.398533-4.902509 18.083474-13.957925 13.689819-31.784236 21.700169-48.056627 32.030456a58340.105161 58340.105161 0 0 0-247.226534 156.809162c-5.422306 3.359532-10.592922 7.23339-17.306513 8.267513-2.073718 0-5.43325 1.034123-4.913453-3.359532z" fill="#5098CC" p-id="7812"></path><path d="M490.556182 397.327575c15.758065 1.291286 25.316864-10.850084 36.686746-18.083474 67.420444-41.594726 134.074871-84.218104 200.980989-126.841481 26.350987-16.792188 51.925013-34.618499 79.82992-48.822644-2.33088 8.267513-2.073718 17.306514-9.821433 23.248617-55.798871 34.618499-111.346051 70.008487-166.882287 104.88415a20900.846487 20900.846487 0 0 1-139.502649 87.577635c-3.359532 2.062774-8.267513 9.039001-12.398533 0 3.096898-7.496024 5.936632-15.506374 11.107247-21.962803z" fill="#539BCD" p-id="7813"></path><path d="M818.646759 154.494697c0.257163 5.422306 0 10.592922-2.588044 15.500902-7.747715 8.267513-18.083474 13.175493-27.385109 19.117597-86.800675 55.027382-173.601351 109.79213-260.402027 164.556878-4.393655 2.582572-10.073124 9.301636-14.466779-0.514325 2.845206-8.524676 7.753187-16.015228 12.91833-23.254089 21.700169-7.490552 39.52648-22.471657 58.644078-34.355865a11649.94303 11649.94303 0 0 0 140.536771-88.606287c24.282741-15.500902 48.822644-30.482007 72.848222-45.98291 5.942104-4.136492 11.621573-9.044473 19.894558-6.461901z" fill="#4B94CA" p-id="7814"></path><path d="M539.893152 306.910205c3.622166-8.524676 8.781838-16.277862 14.723942-23.511252 78.790326-48.308318 156.552-97.907923 234.313674-148.027325 7.23339-4.650818 14.466779-9.301636 22.219967-13.175493 3.35406-1.811083 6.456429-4.650818 10.592921-1.291286-0.257163 4.393655-0.257163 8.524676-0.519797 12.918331-1.028651 1.548449-1.548449 3.359532-2.845206 4.90798-16.792188 13.432656-35.652622 24.282741-53.730625 35.389988-68.202876 41.851889-135.366157 85.252227-203.049235 127.875605-4.650818 3.102369-9.301636 6.461901-14.723942 8.010349-2.845206 0.77696-6.981698 2.845206-6.981699-3.096897z" fill="#458FC8" p-id="7815"></path><path d="M513.8048 352.893114c4.131021 5.427778 7.23339 1.548449 10.850084-0.77696 40.297969-25.574027 80.344246-51.410688 120.642215-76.984714 46.502707-29.190721 93.519739-58.12428 140.016975-87.572164 10.078596-6.461901 19.117597-14.466779 30.744641-17.826311 0.519797 5.422306-1.291286 10.592922-2.845206 15.500902-21.437534 8.267513-39.263846 22.477129-58.381443 34.361337a77036.217774 77036.217774 0 0 0-242.324024 152.415507c-2.839735 1.811083-5.684941 6.719064-9.301635 0.776961 2.33088-6.976227 5.690412-13.695291 10.598393-19.894558z" fill="#4E96CB" p-id="7816"></path><path d="M510.965065 488.259271c16.015228-17.049351 37.715397-26.345515 56.832994-39.006683 47.279667-31.001805 95.068188-60.712323 143.113872-90.41737 12.146842-7.490552 23.254089-17.306514 37.463706-21.185843-3.616695 9.301636-8.524676 18.083474-14.981105 25.836661-21.700169 17.563677-46.75987 30.224844-70.013959 45.468584-43.400338 28.676396-88.091961 55.027382-131.486827 83.960941-1.805612 1.291286-3.616695 2.068246-5.684941 2.845206-5.427778-1.039595-10.592922-3.884801-15.24374-7.501496z" fill="#65ABD4" p-id="7817"></path><path d="M474.535483 454.937529c-5.422306-5.942104-7.753187-11.884207-2.062775-19.117597 11.884207-2.325409 20.666046-10.330287 30.482007-16.529554 89.383247-57.34732 179.795146-112.631865 268.921231-170.241819 6.204738-3.873858 11.627045-10.850084 20.666046-6.976226-2.582572 6.461901-2.582572 14.209616-9.553327 18.346108-75.693428 48.051156-151.906654 95.839677-227.594611 144.147995-22.734292 14.466779-45.725747 29.190721-68.460038 43.400338-3.868386 2.5771-7.485081 5.936632-12.398533 6.970755z" fill="#589FCF" p-id="7818"></path><path d="M569.603671 259.893172a168.791858 168.791858 0 0 1 19.37476-27.899435c11.884207-3.096898 21.185843-11.107247 31.258967-17.563677 60.712323-39.006683 122.196135-76.984714 182.902987-115.734234 5.427778-3.616695 11.112719-10.073124 19.37476-5.165144 0.262634 4.393655 0.262634 9.044473 0 13.438128-18.849491 14.723942-40.297969 25.831189-60.444217 38.74952-56.575831 36.424111-113.928622 71.814099-170.761617 107.981047-6.461901 4.125549-12.404005 11.358939-21.70564 6.193795z" fill="#408AC6" p-id="7819"></path><path d="M821.223859 92.233925c-36.424111 19.37476-70.008487 43.143175-104.88415 65.100507-38.492357 24.025578-76.470388 48.828116-114.957273 73.110856-3.622166 2.325409-7.753187 6.719064-12.409477 1.548449 5.684941-9.301636 12.146842-18.340637 19.900029-26.350987 21.437534-9.301636 39.783643-23.505781 59.415566-35.909785 50.89089-31.778765 101.524618-64.066384 152.410036-96.102311 4.136492-2.582572 8.01035-6.976227 13.952454-4.650818a58.135223 58.135223 0 0 1-10.592922 20.666046c-1.02318 1.039595-1.285814 2.588043-2.834263 2.588043z" fill="#3D87C5" p-id="7820"></path><path d="M639.612158 169.475802c14.986577-18.083474 32.29309-33.584376 49.862239-48.822644 11.101776-1.811083 19.117597-9.815961 27.904907-15.24374 40.297969-25.831189 81.110263-50.376564 120.899377-76.722079 4.136492-2.845206 8.004878-6.719064 13.68982-5.942104-0.771489 8.267513-3.611223 16.015228-7.490553 23.254089-6.199267 10.592922-17.826311 14.723942-27.379638 20.666046-51.925013 32.550253-103.341172 66.13463-155.523349 98.165086-6.456429 3.868386-12.91833 10.844613-21.962803 4.645346z" fill="#3882C3" p-id="7821"></path><path d="M771.624255 283.398953c-18.083474 4.650818-31.773293 17.569148-47.279667 26.870784-32.544782 19.37476-64.323546 40.297969-96.354003 60.706851-39.783643 25.316864-79.310123 50.633727-118.836603 75.693429a1609.916159 1609.916159 0 0 1-27.899435 17.306513c-1.811083-2.582572-3.616695-5.165144-5.684941-7.753186 16.535025-15.243739 36.686745-25.059701 55.284545-37.201072 78.024309-50.119402 156.552-99.199209 235.085163-148.798813 4.907981-3.096898 9.56427-7.753187 16.277862-5.165143-0.005472 8.524676-8.01035 11.884207-10.592921 18.340637z" fill="#5BA2D0" p-id="7822"></path><path d="M710.397606 394.745003c-6.719064 6.199267-8.530147 14.981105-10.844613 23.248618-12.409476 13.438128-29.453356 20.408883-44.434461 30.482007-27.127947 18.346108-55.284545 34.875662-82.669655 52.701974-5.422306 3.616695-10.844613 6.976227-17.826311 4.90798a31.390285 31.390285 0 0 1-15.758065-4.90798c2.325409-7.753187 8.781838-11.627045 14.986576-15.24374 45.205949-28.156598 90.154736-56.832994 135.103523-85.766552 6.461901-4.388183 12.91833-9.815961 21.443006-5.422307z" fill="#6BB0D6" p-id="7823"></path><path d="M851.963029 22.739763c-23.511252 15.500902-46.754398 31.001805-70.522813 45.98291-26.60815 16.792188-53.473462 33.321742-80.087083 49.856767-3.616695 2.325409-6.976227 7.753187-11.884208 2.068246 50.11393-45.725747 105.912801-83.703778 164.819513-120.642214 1.811083 9.301636 0.77696 16.0207-2.325409 22.734291z" fill="#357FC2" p-id="7824"></path><path d="M524.140559 578.682113c-0.782432 5.165144-3.879329 4.393655-7.496024 3.359532-39.783643-8.272984-75.179102-25.842133-105.918273-52.187648-39.778171-34.098702-68.974364-75.950591-83.178509-127.104115-2.068246-6.970755-4.393655-13.946982 0-20.923209 4.907981 6.199267 10.073124 12.14137 14.981105 18.346108 3.873858 24.797066 15.500902 46.240072 28.933558 66.91159 29.710519 45.211421 70.528285 77.236405 121.933501 95.062717 6.976227 2.33088 14.209616 3.879329 21.185843 5.427778 4.131021 2.839735 7.485081 6.450958 9.558799 11.107247z" fill="#FAD316" p-id="7825"></path><path d="M710.397606 394.745003c-18.5978 2.839735-31.778765 16.277862-47.022504 25.316864-33.578905 20.15172-66.129158 42.366215-99.456372 63.037732-8.781838 5.422306-16.535025 11.884207-24.797066 17.82084-4.650818-0.257163-9.039001-1.805612-12.661168-4.907981 1.811083-4.650818 5.942104-6.970755 10.078596-9.558799a71513.163674 71513.163674 0 0 1 185.485558-117.545317c3.611223-2.325409 7.747715-3.359532 11.621573-4.90798-5.679469 11.369882-13.689819 21.70564-23.248617 30.744641z" fill="#68ADD5" p-id="7826"></path><path d="M361.646455 425.227011c30.73917 32.29309 62.517935 63.289423 97.65076 90.674533 13.689819 10.592922 26.093824 22.996926 39.006683 34.618499-2.839735 6.719064-3.096898 7.227918-11.364411 4.131021-15.758065-6.199267-30.482007-13.946982-44.691623-23.243146-33.584376-21.962803-59.415566-50.639199-78.276-86.029187-3.096898-6.204738-8.267513-12.661168-2.325409-20.15172z" fill="#FAD514" p-id="7827"></path><path d="M361.646455 425.227011c0.257163 20.15172 14.209616 33.841539 24.539903 48.565481 25.316864 35.909785 60.706852 59.929891 100.753129 77.241877 2.839735 1.291286 8.267513 7.23339 11.627045-0.519797 6.719064 4.393655 11.884207 10.335759 16.277862 16.792188-15.243739 5.159672-27.642273-4.136492-39.783642-9.301636C410.474571 529.591363 366.81707 480.763247 342.277167 414.88578c-1.811083-4.907981-2.582572-10.073124 0.77696-14.723942 5.936632 8.272984 12.130427 16.79766 18.592328 25.065173z" fill="#FAD415" p-id="7828"></path><path d="M539.893152 306.910205c5.684941 4.650818 9.821433-1.034123 13.432656-3.359532 58.649549-37.201071 117.030991-74.659305 175.669597-111.860376 29.710519-18.860434 59.935363-36.943908 89.645882-55.541708 3.611223 8.524676-0.519797 13.689819-7.490552 17.826311-88.611759 53.473462-175.412434 109.79213-262.984599 164.819512-5.684941 3.616695-11.107247 8.781838-18.603271 3.359532 3.622166-4.913452 6.976227-10.078596 10.330287-15.243739z" fill="#4891C9" p-id="7829"></path><path d="M479.963261 419.547541c10.592922 2.839735 17.306514-5.684941 24.025577-10.335758 49.079807-32.807416 99.713534-62.517935 149.318611-94.553863 43.914663-28.413761 88.097433-56.056034 132.006625-83.955469 4.136492-2.582572 8.272984-4.650818 13.175493-3.873858-0.257163 2.582572-0.514326 5.165144-0.771489 7.490553-53.993259 32.812888-106.695233 67.425916-160.168694 100.753129-49.856767 31.258967-99.20468 63.037732-149.318611 93.776902-4.393655 2.582572-8.781838 6.199267-13.946982 1.291286 1.028651-3.622166 2.582572-7.496024 5.67947-10.592922z" fill="#569DCE" p-id="7830"></path><path d="M554.879729 505.828419c17.569148-5.165144 31.001805-17.826311 46.508178-26.870784 33.321742-19.37476 64.323546-42.623378 98.422249-60.969486-1.291286 8.267513-3.359532 16.015228-7.490553 23.25409-11.112719 11.369882-25.836661 17.826311-39.012154 26.608149-22.219966 14.981105-45.720275 28.676396-67.683079 44.171826-2.588043 0.262634-5.165144 0.519797-7.490552-0.77696-8.267513 0.005472-16.0207-1.542977-23.254089-5.416835z" fill="#6FB3D7" p-id="7831"></path><path d="M569.603671 259.893172c19.117597-3.873858 33.070051-17.563677 49.085278-26.865312 30.487479-17.826311 59.935363-37.97256 89.908517-57.095629 33.064579-21.185843 66.391793-41.846417 99.719006-63.03226 3.873858-2.582572 7.490552-6.199267 12.655696-5.165144 4.393655 6.456429-0.514326 8.781838-5.159672 11.627045-38.74952 23.768415-76.984714 48.565481-115.477072 72.591059-41.332092 25.836661-82.664183 52.439339-124.258909 78.018837-3.873858 2.325409-9.039001 10.073124-13.432656 0 1.537506-3.616695 3.605752-7.238861 6.959812-10.078596z" fill="#428CC7" p-id="7832"></path><path d="M642.200201 1019.656246c7.23339-44.434461 9.296164-89.383247 11.107248-134.332034 9.301636 0 10.073124 8.004878 12.404005 13.689819 4.393655 10.078596 6.456429 21.180372 13.432656 29.967681 0.514326 2.588043 0.257163 5.165144 0 7.747716-0.77696 3.622166-1.805612 7.490552-2.588044 11.112719-1.805612 6.199267-3.873858 12.14137-5.679469 18.340637a291.890799 291.890799 0 0 1-17.569148 43.6575c-2.325409 4.913452-3.359532 11.369882-11.107248 9.815962z" fill="#FCDF0D" p-id="7833"></path><path d="M529.820028 322.411107c15.758065 0.519797 25.579498-11.36441 37.201071-18.5978a5637.825341 5637.825341 0 0 0 135.108994-84.732429 3723.439288 3723.439288 0 0 1 106.946924-66.648956c6.204738-3.616695 11.369882-7.753187 9.821433-16.015228 0.77696-0.77696 1.548449-1.811083 2.325409-2.582571 0.77696 6.976227-0.262634 13.946982-2.325409 20.666046-27.38511 11.36441-50.633727 30.224844-76.207754 44.948786-22.996926 13.175493-44.697095 28.676396-67.168753 42.886012l-137.948728 86.800676c-3.622166 2.325409-6.724535 6.199267-10.850085 0.77696-0.519797-3.370475 1.811083-5.43325 3.096898-7.501496z" fill="#4992C9" p-id="7834"></path><path d="M474.535483 430.654789c5.427778 0.77696 9.815961-1.811083 14.466779-4.393655l128.652564-80.601409c51.410688-32.550253 102.558741-65.620304 153.969429-98.165086 8.01035-5.165144 15.500902-12.655696 26.099295-12.91833 0.257163 3.873858-3.879329 4.907981-4.907981 7.753186-19.380232 5.942104-34.098702 19.631923-50.639199 29.967682-55.793399 34.361336-110.563619 70.008487-165.848164 105.141312a6759.958254 6759.958254 0 0 1-91.19433 57.352792c-3.616695 2.325409-7.753187 6.719064-12.404005 1.291286-0.257163-2.33088-0.257163-4.399127 1.805612-5.427778z" fill="#569DCE" p-id="7835"></path><path d="M639.612158 169.475802c16.535025 0 27.127947-12.14137 39.531952-19.894557 46.240072-27.899435 91.708656-56.832994 136.914605-86.28635 9.296164-5.942104 19.37476-10.850084 28.156599-17.563677-0.519797 4.907981-2.588043 9.039001-5.427778 12.918331-4.393655 7.753187-12.655696 10.073124-19.37476 14.466779-59.929891 37.97256-120.122417 75.687957-180.314944 113.923151-5.427778 3.359532-11.107247 9.039001-18.340637 3.096897 4.650818-8.519204 12.14137-14.204145 18.854963-20.660574z" fill="#3A85C4" p-id="7836"></path><path d="M621.271521 190.141848c10.335759 2.068246 17.049351-5.684941 24.282741-10.073124 46.765341-29.710519 93.262576-59.672729 140.542243-88.349125 17.826311-10.850084 34.355865-23.511252 53.221771-32.812887-0.525269 3.873858-2.073718 7.496024-4.913452 10.335758l-107.723884 67.425916-106.175436 67.425915c-3.873858 2.325409-7.490552 4.393655-11.884207 1.548449 2.062774-6.976227 8.004878-10.592922 12.650224-15.500902z" fill="#3B85C4" p-id="7837"></path><path d="M557.982098 639.90329c-43.143175-0.77696-83.183981-12.404005-121.676338-31.51613-28.413761-13.952454-53.473462-32.030456-76.207754-53.736096-26.345515-25.054229-47.017033-54.250422-63.03226-87.057839-2.325409-4.907981-3.359532-11.107247-10.850085-11.369881-1.291286-9.815961-3.102369-19.37476 0-29.190722 1.291286 19.117597 13.175493 34.098702 21.437535 49.856767 25.316864 46.75987 60.192526 85.772024 106.175435 113.151663 43.657501 26.093824 89.903045 44.177298 141.828058 44.43446 1.034123 2.068246 1.805612 3.622166 2.325409 5.427778z" fill="#F9CC1D" p-id="7838"></path><path d="M562.890079 270.486094c5.679469 5.422306 9.81049-0.519797 13.432656-2.845206 63.546586-39.52648 126.584318-79.567286 189.873742-119.350929 16.277862-10.335759 32.550253-20.666046 48.822644-30.482007 3.879329-2.325409 7.23339-4.650818 6.204738-9.815962 0-5.165144 0-10.330287 0.262634-15.500902l2.582572-2.582572c-1.55392 10.335759 1.028651 20.923209-2.325409 31.001805-17.826311 6.719064-32.29309 18.860434-48.31379 28.676395a17516.714454 17516.714454 0 0 0-163.528226 103.078538c-12.14137 7.753187-24.025578 16.272391-36.161477 24.025578-5.684941 3.616695-11.36441 7.753187-18.860434 6.719064a31.992155 31.992155 0 0 1 8.01035-12.923802z" fill="#438CC7" p-id="7839"></path><path d="M782.211705 265.572642c-24.534432 9.815961-44.948787 26.350987-66.91159 40.040805-67.940241 42.109052-135.366157 84.995064-203.049235 127.618442-12.404005 7.753187-24.539904 15.758065-36.686746 23.511252-0.514326-0.519797-0.77696-1.034123-0.77696-1.548449 11.107247-12.91833 26.865312-19.380232 40.817766-28.419233 55.027382-35.652622 110.563619-70.26565 165.853636-105.398475 30.482007-19.117597 60.969486-38.235194 91.19433-57.609954 3.35406-2.325409 6.713592-3.616695 10.844613-3.096898-0.503383 1.548449-1.02318 3.096898-1.285814 4.90251z" fill="#5AA0D0" p-id="7840"></path><path d="M725.384182 825.908646c4.650818 13.432656 7.490552 27.122475 7.747716 41.332092-9.039001-3.616695-17.306514 0.77696-25.83119 2.325409-13.689819 2.588043-17.569148 0.77696-22.734292-11.364411-1.548449-8.524676-0.77696-17.049351-0.77696-25.316863 0.519797-7.23339 2.068246-11.627045 11.107247-6.970755 5.679469 2.839735 11.621573-0.525269 17.563677-2.073718 4.393655-1.291286 9.56427-4.650818 12.923802 2.068246z" fill="#FB9E11" p-id="7841"></path><path d="M686.891825 859.750185c9.558799 15.500902 21.962803 6.204738 32.550253 2.582572 7.747715-2.582572 10.844613-1.028651 13.68982 5.170615 1.034123 7.747715 1.548449 15.495431 0 23.243146-11.621573 6.724535-24.534432 8.530147-37.458234 10.598393-5.942104 0.77696-10.592922-1.811083-13.175494-7.753187-2.062774-6.456429-1.805612-13.170022-0.771488-19.889085 1.805612-4.650818 1.028651-10.335759 5.165143-13.952454z" fill="#FC990D" p-id="7842"></path><path d="M586.138696 510.741872c0.77696-9.56427 10.073124-10.078596 15.500902-13.695291 30.219373-18.5978 58.638606-40.040806 90.160208-56.061505-1.548449 7.753187-5.165144 14.466779-10.073124 20.666046-12.91833 13.432656-30.487479 19.889086-45.216893 30.744641-8.781838 6.456429-18.854963 11.627045-27.379638 18.5978v-0.257163c-7.23339 1.811083-14.981105 2.319937-22.991455 0.005472z" fill="#72B6D9" p-id="7843"></path><path d="M645.297099 793.358393l-10.073124-38.74952c-1.55392-12.404005 6.461901-7.490552 11.107247-5.427778 10.592922 5.165144 20.403411 12.404005 31.51613 17.049351 5.684941 10.073124 9.296164 20.403411 6.461901 32.030456-6.204738 10.850084-12.912859 5.427778-20.15172 1.034123-5.942104-3.611223-10.330287-12.135899-18.860434-5.936632z" fill="#FAD415" p-id="7844"></path><path d="M684.566416 872.663044v20.666046c1.811083 2.845206 1.291286 4.650818-1.811083 5.684941-6.713592-10.592922-13.432656-21.180372-19.889086-31.778765-4.650818-7.490552-6.719064-2.068246-9.558798 1.028652-2.839735-12.655696-2.068246-25.831189-2.582572-38.74952-0.782432-3.873858-3.359532-8.781838 1.548449-11.101776 3.35406-1.811083 7.23339 1.285814 10.078596 3.868386 2.319937 1.811083 4.902509 3.622166 6.456429 6.204738 4.393655 7.227918 10.078596 6.719064 16.277863 3.096898 0.514326 1.291286 0.77696 2.582572 0.77696 4.13102-1.034123 11.889679 1.280343 24.550847-1.296758 36.94938z" fill="#FBDA10" p-id="7845"></path><path d="M614.038132 699.581491c-4.393655-8.530147-10.335759-16.277862-12.141371-26.099296 1.805612-8.524676 8.267513-5.422306 13.175494-4.650818 11.36441 2.068246 22.219966 5.684941 32.807416 10.078596 5.942104 3.096898 7.490552 9.553327 10.592921 14.981105 2.068246 5.422306 7.747715 10.592922 2.325409 17.306514-4.388183 2.325409-9.301636 2.582572-13.432656 0.77696-11.107247-4.645346-22.734292-7.227918-33.327213-12.393061z" fill="#F9CB1C" p-id="7846"></path><path d="M725.384182 825.908646c-8.267513-5.170615-13.946982 3.868386-21.700169 3.611223-5.165144 0-10.598393 4.650818-14.209616-2.845206-1.034123-2.319937-1.805612-0.514326-2.068246 0.519797-0.262634 1.291286-0.262634 2.582572-0.262635 3.873858-0.771489 1.034123-1.805612 1.034123-2.582571-0.257163-4.131021-4.136492-3.616695-9.815961-3.873858-14.981105 0.257163-5.165144 0-10.335759 1.805612-15.238268 0.257163-5.942104 1.811083-10.598393 9.558798-10.078595 6.970755 0.514326 13.438128-6.199267 20.666046-1.034123 5.427778 11.884207 10.603865 23.768415 12.666639 36.429582z" fill="#FBA314" p-id="7847"></path><path d="M684.309253 815.572887v15.495431c-3.359532 9.301636-7.490552 13.952454-14.723942 2.330881-2.325409-3.622166-5.942104-6.204738-9.039001-9.039002-2.582572-2.33088-5.422306-5.684941-8.781838-3.622166-1.548449 1.034123-1.028651 5.427778-1.548449 8.530147-1.811083-11.884207-3.616695-24.025578-5.422307-35.909785 0.514326-7.753187 3.096898-11.627045 10.592922-5.170615 4.393655 3.879329 9.296164 6.976227 13.432656 11.112718 4.136492 4.131021 8.267513 3.096898 12.398533 0.771489 0.262634 0.525269 0.782432 1.034123 1.034123 1.55392 1.537506 4.645346-0.525269 9.558799 2.057303 13.946982z" fill="#FBD712" p-id="7848"></path><path d="M540.418421 562.141616c18.083474 18.088946 39.783643 32.29309 56.575831 51.667851 3.096898 3.616695 5.942104 6.976227 9.039001 10.592921-10.078596 6.461901-20.408883 3.096898-30.744641 0.257163-12.912859-19.631923-25.574027-39.521009-38.492357-59.158403-0.514326-2.834263 0.77696-4.125549 3.622166-3.359532z" fill="#F8C423" p-id="7849"></path><path d="M529.048539 676.584564c8.781838-6.456429 18.5978-1.805612 27.904907-3.096897 4.650818-0.514326 10.592922 1.291286 11.621573-6.199267 8.781838 15.238268 9.044473 33.327213 15.500903 49.342442 0.514326 3.359532 3.616695 7.753187-3.096898 8.530147-13.180965-20.414355-32.041399-34.881134-51.930485-48.576425z" fill="#F9C820" p-id="7850"></path><path d="M614.038132 699.581491c8.781838-1.291286 16.792188 1.028651 24.28274 5.159672 7.227918 4.136492 14.723942 5.684941 22.991455 4.90798 7.23339 7.23339 9.296164 16.535025 12.14137 25.836661 0.257163 2.062774 0 3.873858-1.291286 5.422307-7.227918 2.325409-13.170022-0.77696-19.374759-3.616695-9.039001-4.393655-18.083474-8.781838-27.899436-11.627045-4.125549-8.519204-9.301636-16.529554-10.850084-26.08288z" fill="#FACF19" p-id="7851"></path><path d="M624.888216 725.669843c5.679469-4.902509 10.335759 0 14.981105 2.073717 10.335759 4.650818 20.666046 10.073124 31.778765 13.170022 5.942104 3.873858 5.684941 10.598393 7.490552 16.277863 0.514326 3.616695 0.514326 6.970755-2.325409 9.558798-12.912859 1.548449-20.15172-9.558799-30.482007-13.952453-3.616695-1.548449-9.039001-8.524676-11.107247 1.811083-4.136492-9.56427-9.044473-18.603271-10.335759-28.93903z" fill="#FAD118" p-id="7852"></path><path d="M653.050286 868.012226c0.257163-2.845206 0.257163-5.942104 0.519797-8.781838 0.257163-3.096898 3.35406-5.422306 4.902509-2.582572 7.747715 13.952454 22.471657 24.025578 23.511252 41.846418 3.611223 3.616695 3.35406 8.01035 3.354061 12.655696-2.588043 6.199267 0.519797 14.981105-8.530147 18.597799-7.227918-7.227918-9.553327-16.792188-12.655696-26.093823-2.33088-6.719064-3.879329-13.952454-10.592922-18.083474-0.251691-5.931161-0.508854-11.616101-0.508854-17.558206z" fill="#FBDD0E" p-id="7853"></path><path d="M642.200201 1019.656246c11.369882-10.592922 14.215088-25.574027 20.408883-39.006683 2.325409-4.907981 4.131021-10.078596 6.199267-15.24374 8.267513 2.845206 16.277862 5.679469 25.316864 3.873858 2.588043-0.514326 6.199267-0.77696 5.942103 3.879329-15.500902 18.083474-31.258967 35.909785-51.925013 48.822644-4.907981 3.107841-4.907981 2.845206-5.942104-2.325408z" fill="#FE8D05" p-id="7854"></path><path d="M681.983844 911.412564v-12.912859c2.062774-1.028651 2.325409-3.096898 2.582572-5.165143 9.301636 10.844613 19.637394 1.805612 29.190722 0.77696 6.461901-0.77696 12.91833-4.131021 19.637394-3.359532v2.588043c-2.325409 4.393655 0 9.558799-2.068246 13.952454 0 4.393655 0.257163 8.524676-2.588043 12.404004-10.073124-2.845206-19.37476 1.548449-29.18525 2.582572-8.530147 0.760546-16.79766 0.503383-17.569149-10.866499z" fill="#FC970C" p-id="7855"></path><path d="M681.983844 911.412564c3.873858 10.078596 12.398533 8.272984 20.151721 7.23339 5.422306-0.77696 10.592922-3.096898 15.758065-4.136492 4.650818-1.028651 9.558799-1.805612 10.592921 5.170615-0.257163 5.422306-1.805612 10.592922-5.159672 14.981105-10.335759 8.267513-22.739763 8.781838-35.138296 9.039001-4.902509 0-9.296164-1.291286-11.627045-6.461901v-7.747715c4.131021-5.411363 2.325409-12.393062 5.422306-18.078003z" fill="#FD9409" p-id="7856"></path><path d="M648.136834 681.498016c-11.107247-3.096898-22.219966-5.942104-33.321742-9.039001-4.656289-1.285814-9.044473-3.096898-13.175494 1.291286-4.136492-6.461901-9.039001-12.404005-10.335758-20.403411 0-8.530147 5.942104-8.272984 11.36441-7.23339 10.335759 1.805612 20.666046 3.873858 29.973153 9.553327 5.416835 4.136492 10.073124 9.039001 13.170022 15.243739 1.034123 3.35406 5.684941 5.936632 2.325409 10.58745z" fill="#F9C91E" p-id="7857"></path><path d="M676.556066 766.750243v-10.335759c6.724535-0.77696 13.432656-3.096898 20.408883-2.588043 5.165144 12.146842 13.946982 22.471657 15.758066 36.166948-8.781838-0.519797-16.277862 6.970755-25.579499 4.65629-3.096898-0.782432-2.062774 3.611223-2.582571 5.942103-0.77696 1.028651-1.811083 1.028651-2.582572 0 1.811083-12.146842-3.873858-22.734292-5.422307-33.841539z" fill="#FAA819" p-id="7858"></path><path d="M632.38424 655.661355c-10.335759 0.262634-19.894557-3.873858-29.710519-6.199266-5.422306-1.291286-9.039001-1.291286-11.621573 3.879329-5.684941-9.301636-12.409476-17.826311-16.020699-28.419233 10.335759-3.096898 20.408883 1.291286 30.73917-0.262634 8.524676 10.855556 20.671517 18.088946 26.613621 31.001804z" fill="#F9C720" p-id="7859"></path><path d="M609.644477 511.250726c2.588043-11.36441 13.952454-12.912859 21.185843-18.340637 16.277862-11.369882 34.098702-20.923209 51.153524-31.001805-14.981105 29.453356-40.040806 44.954258-72.339367 49.342442z" fill="#74B8D9" p-id="7860"></path><path d="M676.818701 937.249225c16.015228 7.753187 31.258967 0.262634 46.75987-2.582572-4.136492 8.524676-6.461901 18.083474-13.175494 25.059701-7.23339-1.548449-14.209616 1.285814-21.443006 1.548449-9.558799 0.257163-15.758065-2.588043-14.71847-13.695291-0.53074-3.873858 0.766017-7.227918 2.5771-10.330287z" fill="#FD9108" p-id="7861"></path><path d="M674.236129 947.579512c3.35406 12.404005 12.398533 11.621573 21.957332 9.558799 5.165144-1.034123 10.850084-5.427778 14.209616 2.588043-5.942104 2.582572-3.616695 11.621573-10.335759 13.689819-5.427778-4.136492-10.592922 0.77696-15.758065 0.514326-6.970755-0.257163-12.404005-1.285814-15.243739-8.262041 0-6.719064 2.325409-12.404005 5.170615-18.088946z" fill="#FD8F06" p-id="7862"></path><path d="M696.964949 753.826441c-6.461901 3.622166-12.91833 7.490552-20.408883 2.588043-3.873858-4.393655-3.35406-10.335759-5.159672-15.500902v-5.165143c-0.782432-10.335759 5.159672-10.078596 12.398534-7.747716 4.388183 8.519204 11.621573 15.758065 13.170021 25.825718z" fill="#FAAC1C" p-id="7863"></path><path d="M683.789456 728.000723c-4.393655 2.062774-11.107247 0.77696-12.398533 7.747716-4.136492-8.267513-8.781838-16.529554-10.335759-25.83119-1.811083-5.170615-3.359532-10.335759-5.170615-15.506374-1.548449-2.845206-2.319937-5.159672 2.330881-5.159672 8.78731 12.912859 17.306514 25.825718 25.574026 38.74952z" fill="#F9AF1F" p-id="7864"></path><path d="M658.472592 689.251203c-2.062774 1.028651-2.325409 3.096898-2.325409 5.159672-2.582572-4.393655-5.165144-8.524676-7.753186-12.912859-0.771489-3.616695-1.805612-6.970755-2.582572-10.592921 5.170615 5.422306 10.335759 10.850084 12.661167 18.346108z" fill="#F9B524" p-id="7865"></path><path d="M586.138696 510.741872c7.747715 0 15.758065 0 23.505781 0.257163-10.592922 3.873858-21.180372 3.873858-31.773294 0 2.845206-0.005472 5.690412-0.005472 8.267513-0.257163z" fill="#74B8D9" p-id="7866"></path><path d="M580.973553 725.41268c3.35406-2.062774 2.588043-5.422306 3.096897-8.524676 2.845206 6.199267 5.165144 12.655696 4.650818 21.957332-3.35406-5.684941-5.684941-9.553327-7.747715-13.432656z" fill="#F8C72D" p-id="7867"></path><path d="M540.418421 562.141616c-1.291286 1.034123-2.33088 2.33088-3.622166 3.359532-2.582572-3.096898-4.902509-6.199267-8.004879-10.073124 6.970755-0.257163 9.039001 3.616695 11.627045 6.713592z" fill="#F8C12F" p-id="7868"></path><path d="M170.475956 265.058316c-1.548449 0.77696-3.359532 1.548449-4.907981 2.582572-2.582572-0.514326-4.907981-1.034123-6.719064-4.131021 4.393655-1.548449 8.267513-1.291286 11.627045 1.548449z" fill="#81CAEC" p-id="7869"></path><path d="M286.729987 464.490856c4.393655 4.907981 1.811083 10.850084 2.068246 16.277863-2.845206-5.165144-2.33088-10.850084-2.068246-16.277863z" fill="#F9CC1D" p-id="7870"></path><path d="M731.326286 907.281544c0.257163-4.656289-2.062774-9.815961 2.068246-13.952454 0.251691 4.650818 0.514326 9.558799-2.068246 13.952454z" fill="#FC990D" p-id="7871"></path><path d="M684.566416 831.07379c0.77696 0 1.55392 0 2.582572 0.257162v28.419233c-0.771489 4.393655 1.548449 9.301636-2.582572 12.912859v-41.589254z" fill="#FBD712" p-id="7872"></path><path d="M681.726682 800.071985h2.582571v15.506374c-4.656289-4.393655-1.55392-10.335759-2.582571-15.506374z" fill="#FAD415" p-id="7873"></path></svg>