<?xml version="1.0" standalone="no"?><!DOCTYPE svg PUBLIC "-//W3C//DTD SVG 1.1//EN" "http://www.w3.org/Graphics/SVG/1.1/DTD/svg11.dtd"><svg t="1505049326674" class="icon" style="" viewBox="0 0 1024 1024" version="1.1" xmlns="http://www.w3.org/2000/svg" p-id="4482" xmlns:xlink="http://www.w3.org/1999/xlink" width="100%" height="100%"><defs><style type="text/css">html, * { user-select: text !important; }
</style></defs><path d="M512 71.133867C268.4928 71.133867 71.133867 268.4928 71.133867 512S268.4928 952.866133 512 952.866133 952.866133 755.5072 952.866133 512 755.5072 71.133867 512 71.133867z m0 839.714133C291.566933 910.848 113.152 732.433067 113.152 512S291.566933 113.152 512 113.152 910.882133 291.566933 910.882133 512 732.433067 910.848 512 910.848z" p-id="4483"></path><path d="M700.928 455.304533c12.5952 0 20.992-8.3968 20.992-20.992s-8.3968-20.992-20.992-20.992h-138.5472l83.968-83.968c8.3968-8.3968 8.3968-20.992 0-29.3888s-20.992-8.3968-29.3888 0L512 404.923733l-102.877867-104.96a20.309333 20.309333 0 0 0-29.3888 0 20.309333 20.309333 0 0 0 0 29.3888l81.885867 83.968H323.072c-12.5952 0-20.992 8.3968-20.992 20.992s8.3968 20.992 20.992 20.992h167.936v75.5712h-167.936c-12.5952 0-20.992 8.3968-20.992 20.992s8.3968 20.992 20.992 20.992h167.936v178.449067c0 12.5952 8.3968 20.992 20.992 20.992s20.992-8.3968 20.992-20.992v-178.449067h167.936c12.5952 0 20.992-8.3968 20.992-20.992s-8.3968-20.992-20.992-20.992h-167.936v-75.5712h167.936z" p-id="4484"></path></svg>