<?xml version="1.0" standalone="no"?><!DOCTYPE svg PUBLIC "-//W3C//DTD SVG 1.1//EN" "http://www.w3.org/Graphics/SVG/1.1/DTD/svg11.dtd"><svg t="1504335860407" class="icon" style="" viewBox="0 0 1024 1024" version="1.1" xmlns="http://www.w3.org/2000/svg" p-id="847" xmlns:xlink="http://www.w3.org/1999/xlink" width="16" height="16"><defs><style type="text/css">html, * { user-select: text !important; }
</style></defs><path d="M 511.15 1010.1 c -12.2576 0 -22.2094 -9.95177 -22.2094 -22.2094 V 443.821 c 0 -12.2576 9.95177 -22.2094 22.2094 -22.2094 c 12.2576 0 22.2094 9.95177 22.2094 22.2094 v 544.07 c 0 12.2576 -9.95177 22.2094 -22.2094 22.2094 Z" fill="#1daa6a" p-id="848"></path><path d="M 346.097 26.0897 l -67.5991 267.12 c 0 25.0007 4.00498 49.0306 11.2867 71.6042 c 9.8304 -27.5493 34.9525 -48.5452 60.6815 -75.245 c 43.5693 -45.0256 199.763 -86.1677 262.751 -123.426 c -30.3408 -105.586 -267.12 -140.052 -267.12 -140.052 Z" fill="#dd6472" p-id="849"></path><path d="M 512.971 158.254 c -62.9874 37.2585 -124.518 79.9781 -168.087 125.004 c -25.729 26.6998 -45.2684 54.1279 -55.0988 81.6773 c 11.7723 36.5302 32.4039 69.1769 59.2251 95.5126 c 42.3557 41.5061 100.124 67.1137 163.718 67.1137 c 128.887 0 234.23 -105.464 234.23 -234.23 l -66.8709 -264.571 c 0.242725 -0.121363 -37.2585 52.7929 -167.117 129.494 Z" fill="#d1525c" p-id="850"></path><path d="M 513.578 712.155 c -4.49043 -11.4081 29.1271 -79.8568 79.8568 -115.902 c 37.7439 -26.8212 122.576 -36.4089 126.339 -26.6998 s -47.4529 74.881 -86.6531 99.1536 c -49.5161 30.8261 -114.93 54.856 -119.542 43.448 Z" fill="#1daa6a" p-id="851"></path><path d="M 295.973 685.454 c 8.61677 -8.8595 84.8327 -6.06815 138.354 25.4862 c 39.9284 23.5444 83.3763 96.9691 76.0946 104.372 s -87.7454 -12.6218 -125.974 -38.472 c -48.3024 -32.768 -97.0903 -82.6482 -88.4736 -91.3863 Z" fill="#1daa6a" p-id="852"></path></svg>