<?xml version="1.0" standalone="no"?><!DOCTYPE svg PUBLIC "-//W3C//DTD SVG 1.1//EN" "http://www.w3.org/Graphics/SVG/1.1/DTD/svg11.dtd"><svg t="1504335967096" class="icon" style="" viewBox="0 0 1024 1024" version="1.1" xmlns="http://www.w3.org/2000/svg" p-id="1123" xmlns:xlink="http://www.w3.org/1999/xlink" width="16" height="16"><defs><style type="text/css">html, * { user-select: text !important; }
</style></defs><path d="M510.2 950.7c-6.4 0-12-3.9-14.1-9.9l-196.6-548c-1.6-4.6-1-9.7 1.9-13.7s7.4-6.4 12.3-6.4H707c4.9 0 9.5 2.4 12.3 6.4s3.5 9.1 1.9 13.7l-196.6 548c-2.5 6-8 9.9-14.4 9.9z" fill="#FFD495" p-id="1124"></path><path d="M434.9 770.3v-0.1zM406.5 703.2h4.4l-1.7-4.6z" fill="#993333" p-id="1125"></path><path d="M721.5 370.2l-4 6.9c-2.8-2.7-6.5-4.3-10.5-4.3h-48.2l-4.4-2.6-1.5 2.6h-61.4l-4.3-2.5-1.4 2.5h-61.3l-4.3-2.5-1.4 2.5h-61.3l-4.4-2.5-1.5 2.5h-61.3l-4.4-2.5-1.5 2.5H313.7c-4.9 0-9.4 2.4-12.3 6.4-2.9 4-3.5 9.1-1.9 13.7l2.4 6.6 4.4 12.4 19.7-34.1h55.5l-33 57.1h-34l3.6 10h24.6l-15.2 26.3 4.4 12.3 22.3-38.7h55.6l-33 57.1h-38.3l3.6 10h29l-17.9 30.9 4.4 12.3 25-43.3h55.6l-33 57.1h-42.6l3.6 10h33.3L379 614.5l4.4 12.3 27.6-47.9h55.6l-33 57.1h-46.9l3.6 10h37.6l-23.2 40.1 4.4 12.3 30.3-52.5H495L462 703h-51.2l3.6 10h41.9l-25.8 44.7 4.4 12.3 32.9-57h55.6l-33 57.1h-55.5l3.6 10h46.2l-28.5 49.3 2.8 7.9 1.6 4.4-3.2 5.6H513l-31.1 53.8-1.9 3.3h3.1l3.2 9-0.6 1H534l3.6-10h-46l33-57.1h33.5l3.6-10h-31.3l33-57.2h18.8l3.6-10h-16.7l33-57.1h4.2l3.6-10 3.3-9.1 17.2-48 1.7-4.8 3-5.2 9.4-16.3 14.8-40.8h-4.9l-20.5 57.1h-54.4l33-57.1h42l3.6-10h-39.8l33-57.1h27.3l3.6-10H657l33-57.1h12.6l3.6-10h-10.4l26.3-45.5 6.7-11.6 1.5-2.5-8.8-4.8z m-127.1 7.5H650l-33 57.1h-55.6l33-57.1zM517 511.9h55.6l-33 57.1H484l33-57.1z m-5.8-10h-55.6l33-57.1h55.6l-33 57.1z m11.5 0l33-57.1h55.6l-33 57.1h-55.6z m4.6-124.2h55.6l-33 57.1h-55.6l33-57.1z m-67.1 0h55.6l-33 57.1h-55.6l33-57.1z m-100.1 57.1l33-57.1h55.6l-33 57.1h-55.6z m28.4 67.1l33-57.1H477l-33 57.1h-55.5z m28.4 67.1l33-57.1h55.6l-33 57.1h-55.6z m28.3 67.1l33-57.1h55.6l-33 57.1h-55.6z m28.4 67.1l33-57.1h55.6l-33 57.1h-55.6z m45.2 134.3h-55.6l33-57.2h55.6l-33 57.2z m38.8-67.2H502l33-57.1h55.6l-33 57.1z m71.7-124.2l-33 57.1h-55.6l33-57.1h55.6z m-61.4-10h-55.6l33-57.1h55.6l-33 57.1z m38.8-67.1h-55.6l33-57.1h55.6l-33 57.1z m38.7-67.1h-55.6l33-57.1h55.6l-33 57.1z m38.8-67.1h-55.6l33-57.1h55.6l-33 57.1z" fill="#993333" p-id="1126"></path><path d="M706.8 377.7c6.9 0 11.8 6.9 9.4 13.4L519.6 939c-1.6 4.4-5.5 6.6-9.4 6.6s-7.8-2.2-9.4-6.6L304.1 391c-2.3-6.5 2.5-13.4 9.4-13.4h393.3m0-9.9H313.5c-6.5 0-12.6 3.2-16.4 8.5-3.7 5.3-4.7 12.1-2.5 18.3l196.6 548c2.9 8 10.3 13.2 18.8 13.2s15.9-5.2 18.8-13.2l196.6-548c2.2-6.1 1.3-12.9-2.5-18.3-3.5-5.4-9.6-8.5-16.1-8.5z" fill="" p-id="1127"></path><path d="M724.3 395.9H293c-21.2 0-38.6-17.3-38.6-38.6 0-21.2 17.3-38.6 38.6-38.6h431.3c21.2 0 38.6 17.3 38.6 38.6 0 21.2-17.4 38.6-38.6 38.6z" fill="#FFFFFF" p-id="1128"></path><path d="M724.3 400.9H293c-24 0-43.6-19.5-43.6-43.6s19.5-43.6 43.6-43.6h431.3c24 0 43.6 19.5 43.6 43.6s-19.6 43.6-43.6 43.6zM293 323.8c-18.5 0-33.6 15.1-33.6 33.6S274.5 391 293 391h431.3c18.5 0 33.6-15.1 33.6-33.6s-15.1-33.6-33.6-33.6H293z" fill="" p-id="1129"></path><path d="M702.8 330.9H310.2c-21.2 0-38.6-17.3-38.6-38.6 0-21.2 17.3-38.6 38.6-38.6h392.6c21.2 0 38.6 17.3 38.6 38.6-0.1 21.2-17.4 38.6-38.6 38.6z" fill="#FFFFFF" p-id="1130"></path><path d="M702.8 335.7H310.2c-23.9 0-43.4-19.4-43.4-43.4s19.4-43.4 43.4-43.4h392.6c23.9 0 43.4 19.4 43.4 43.4s-19.5 43.4-43.4 43.4z m-392.6-77.1c-18.6 0-33.7 15.1-33.7 33.7s15.1 33.7 33.7 33.7h392.6c18.6 0 33.7-15.1 33.7-33.7s-15.1-33.7-33.7-33.7H310.2z" fill="" p-id="1131"></path><path d="M506.5 177.9m-109.6 0a109.6 109.6 0 1 0 219.2 0 109.6 109.6 0 1 0-219.2 0Z" fill="#FF3B59" p-id="1132"></path><path d="M506.5 292c-62.9 0-114.1-51.2-114.1-114.1S443.6 63.8 506.5 63.8 620.6 115 620.6 177.9 569.4 292 506.5 292z m0-219.3c-58 0-105.1 47.2-105.1 105.1S448.5 283 506.5 283s105.1-47.2 105.1-105.1S564.5 72.7 506.5 72.7z" fill="" p-id="1133"></path><path d="M522.6 254.9c-3.8 0-7.2-2.4-8.5-6-0.8-2.3-0.6-4.7 0.4-6.8s2.9-3.8 5.1-4.6c21.8-7.6 39.3-25.2 46.6-47.1 1.2-3.7 4.6-6.1 8.5-6.1 1 0 1.9 0.2 2.9 0.5 4.7 1.6 7.2 6.7 5.6 11.4-9.1 27.1-30.7 48.9-57.8 58.3-0.8 0.2-1.8 0.4-2.8 0.4z" fill="#FFFFFF" p-id="1134"></path><path d="M574.8 188.8c0.5 0 1 0.1 1.4 0.2 2.3 0.8 3.6 3.3 2.8 5.7-8.7 25.8-29.2 46.6-55 55.5-0.5 0.2-1 0.2-1.5 0.2-1.9 0-3.6-1.2-4.2-3-0.8-2.3 0.4-4.9 2.8-5.7 23.1-8 41.6-26.7 49.4-49.9 0.7-1.9 2.5-3 4.3-3m0-9c-5.8 0-10.9 3.7-12.7 9.2-6.9 20.6-23.3 37.2-43.9 44.3-7 2.4-10.7 10.1-8.3 17.1 1.9 5.4 7 9 12.7 9 1.5 0 3-0.3 4.4-0.7 28.3-9.8 51-32.7 60.5-61.1 2.4-7-1.4-14.7-8.5-17-1.3-0.6-2.7-0.8-4.2-0.8z" fill="" p-id="1135"></path><path d="M473.3 132.4m-23.6 0a23.6 23.6 0 1 0 47.2 0 23.6 23.6 0 1 0-47.2 0Z" fill="#FFFFFF" p-id="1136"></path><path d="M473.3 160.5c-15.5 0-28.1-12.6-28.1-28.1s12.6-28.1 28.1-28.1 28.1 12.6 28.1 28.1-12.6 28.1-28.1 28.1z m0-47.2c-10.6 0-19.1 8.6-19.1 19.1 0 10.6 8.6 19.1 19.1 19.1 10.6 0 19.1-8.6 19.1-19.1 0.1-10.5-8.5-19.1-19.1-19.1z" fill="" p-id="1137"></path></svg>